<?xml version="1.0" standalone="no"?>
<!DOCTYPE svg PUBLIC "-//W3C//DTD SVG 20010904//EN"
 "http://www.w3.org/TR/2001/REC-SVG-20010904/DTD/svg10.dtd">
<svg version="1.0" xmlns="http://www.w3.org/2000/svg"
 width="912.000000pt" height="912.000000pt" viewBox="0 0 912.000000 912.000000"
 preserveAspectRatio="xMidYMid meet">
<metadata>
Created by potrace 1.11, written by Peter Selinger 2001-2013
</metadata>
<g transform="translate(0.000000,912.000000) scale(0.100000,-0.100000)"
fill="#000000" stroke="none">
<path d="M1340 4560 l0 -4560 703 0 704 0 0 2775 c0 1526 3 2778 7 2783 4 4 7
3 5 -3 -1 -5 1 -17 4 -25 3 -8 38 -116 77 -240 39 -124 74 -232 77 -240 3 -8
8 -26 10 -40 2 -13 8 -29 12 -35 8 -10 23 -63 19 -67 -1 -2 4 -13 11 -26 7
-13 14 -31 16 -40 2 -9 10 -36 19 -59 8 -24 13 -43 10 -43 -2 0 2 -13 11 -30
8 -16 15 -31 15 -32 -1 -2 1 -10 4 -18 10 -29 68 -215 71 -225 1 -5 5 -17 8
-25 8 -20 88 -269 92 -284 1 -6 5 -18 8 -26 3 -8 38 -116 77 -240 72 -225 106
-332 117 -360 3 -8 7 -20 8 -25 2 -6 35 -112 75 -235 71 -221 88 -275 205
-635 33 -99 60 -182 60 -185 5 -20 29 -99 35 -115 9 -21 68 -199 74 -225 3 -8
23 -73 47 -145 23 -71 41 -131 40 -132 0 -2 10 -33 23 -70 13 -38 43 -129 66
-203 23 -74 46 -143 51 -152 5 -10 9 -25 9 -33 0 -13 50 -15 427 -13 l426 3
43 128 c23 70 40 127 37 127 -3 0 -1 6 5 13 6 6 10 16 10 20 0 4 6 27 15 50
13 37 130 402 159 497 6 19 15 41 21 47 5 7 7 13 3 13 -3 0 0 15 7 33 8 17 14
34 14 37 0 3 22 73 49 155 26 83 48 152 49 155 1 7 36 113 42 130 4 8 7 17 8
20 3 12 21 69 96 300 43 135 79 248 79 252 1 4 8 27 16 50 9 24 17 50 19 58 2
8 11 35 20 60 9 25 18 52 20 60 2 8 14 47 28 85 13 39 24 72 25 75 0 3 3 12 6
20 11 33 110 346 112 355 1 6 27 84 57 175 44 135 106 327 112 350 1 3 4 12 8
20 6 16 78 238 82 255 1 6 5 17 8 25 4 8 40 122 81 253 41 130 78 242 81 247
4 6 8 20 11 33 2 12 13 47 23 77 19 54 20 27 20 -2727 l1 -2783 730 0 730 0 0
4560 0 4560 -743 0 -744 0 -18 -62 c-10 -35 -22 -67 -25 -73 -4 -5 -11 -23
-15 -40 -10 -34 -10 -35 -18 -55 -13 -35 -30 -95 -26 -96 2 0 -2 -8 -10 -17
-7 -10 -10 -17 -6 -17 4 0 3 -6 -2 -12 -6 -7 -13 -25 -17 -40 -3 -15 -11 -40
-18 -55 -6 -15 -13 -35 -14 -43 -2 -8 -39 -123 -84 -255 -45 -132 -83 -247
-85 -255 -4 -17 -102 -306 -112 -330 -3 -8 -7 -19 -8 -25 -6 -24 -48 -151 -54
-160 -3 -5 -6 -14 -7 -20 -1 -5 -48 -147 -104 -315 -56 -168 -103 -309 -105
-315 -1 -5 -5 -17 -8 -25 -11 -29 -69 -202 -72 -213 -1 -7 -5 -21 -9 -32 -5
-11 -12 -31 -16 -45 -4 -14 -11 -34 -15 -45 -3 -11 -7 -22 -7 -25 0 -3 -9 -26
-19 -52 -10 -27 -16 -48 -13 -48 4 0 2 -6 -3 -12 -5 -7 -18 -40 -28 -73 -10
-33 -21 -64 -26 -69 -5 -6 -9 -18 -9 -27 0 -10 -5 -30 -12 -46 -6 -15 -12 -32
-14 -38 -1 -5 -32 -98 -68 -205 -36 -107 -66 -203 -66 -212 0 -10 -4 -18 -10
-18 -5 0 -10 -8 -10 -18 0 -10 -11 -46 -24 -80 -14 -35 -25 -66 -25 -70 -2
-11 -22 -75 -31 -97 -12 -29 -80 -236 -86 -264 -3 -13 -12 -37 -20 -52 -8 -16
-12 -29 -8 -29 4 0 2 -6 -4 -12 -6 -7 -10 -15 -10 -18 0 -10 -15 -65 -20 -74
-5 -10 -154 -451 -170 -506 -6 -19 -40 -123 -77 -230 -37 -107 -68 -202 -70
-210 -2 -8 -4 -16 -5 -17 -2 -2 -3 -6 -5 -10 -1 -5 -4 -15 -8 -23 -5 -13 -50
-155 -64 -200 -4 -13 -6 -12 -14 2 -10 17 -279 821 -283 845 -1 7 -5 16 -9 19
-4 4 -7 13 -7 20 0 7 -5 25 -11 41 -6 15 -10 28 -9 28 1 0 -10 32 -25 70 -14
39 -25 70 -25 70 1 0 -1 7 -4 15 -3 8 -53 161 -111 340 -59 179 -109 332 -112
340 -4 8 -7 17 -8 20 -1 3 -4 12 -8 20 -3 8 -11 33 -17 55 -6 22 -15 49 -20
60 -8 19 -209 629 -214 650 -3 10 -10 30 -25 70 -5 11 -27 81 -51 155 -24 74
-46 144 -50 155 -5 11 -13 34 -18 50 -6 17 -13 39 -18 50 -4 11 -8 25 -9 31
-2 6 -36 109 -76 230 -40 120 -74 221 -74 224 -1 3 -5 13 -9 22 -4 9 -9 25
-11 35 -2 10 -4 19 -5 21 -2 1 -3 5 -5 10 -1 4 -4 14 -7 22 -5 13 -33 97 -42
125 -2 6 -6 17 -9 25 -7 18 -123 370 -149 455 -11 33 -23 69 -27 80 -5 11 -27
79 -50 150 -23 72 -46 139 -51 150 -4 11 -16 45 -25 75 -9 30 -19 62 -22 70
-3 8 -7 20 -8 25 -4 16 -135 408 -142 425 -3 8 -5 18 -5 23 1 4 -322 7 -718 7
l-720 0 0 -4560z"/>
</g>
</svg>
